<?xml version="1.0" standalone="no"?>
<!DOCTYPE svg PUBLIC "-//W3C//DTD SVG 20010904//EN"
 "http://www.w3.org/TR/2001/REC-SVG-20010904/DTD/svg10.dtd">
<svg version="1.0" xmlns="http://www.w3.org/2000/svg"
 width="512.000000pt" height="512.000000pt" viewBox="0 0 512.000000 512.000000"
 preserveAspectRatio="xMidYMid meet">

<g transform="translate(0.000000,512.000000) scale(0.100000,-0.100000)"
fill="#000000" stroke="none">
<path d="M2315 3958 c-624 -39 -1249 -315 -1709 -755 -166 -159 -333 -377
-420 -551 l-46 -92 41 -82 c88 -174 250 -387 426 -559 275 -270 636 -486 1033
-620 447 -151 992 -184 1485 -90 310 59 665 201 945 376 155 97 360 258 461
362 152 157 309 370 394 536 l40 76 -44 88 c-80 162 -262 403 -423 559 -360
351 -903 626 -1408 713 -271 47 -481 58 -775 39z m332 -568 c529 -60 867 -577
709 -1083 -117 -372 -492 -618 -879 -577 -530 57 -871 575 -713 1083 64 203
212 381 406 484 111 60 214 87 380 102 8 0 52 -3 97 -9z"/>
<path d="M2490 3084 c-63 -11 -140 -38 -136 -48 103 -256 177 -448 174 -450
-1 -2 -100 39 -218 91 -118 52 -219 95 -224 96 -21 5 -48 -109 -49 -208 -2
-156 43 -267 152 -376 108 -108 216 -152 371 -153 152 0 264 46 371 153 107
107 153 219 153 371 -1 153 -45 260 -152 369 -69 70 -116 100 -210 132 -54 19
-184 32 -232 23z"/>
</g>
</svg>
